<?xml version="1.0" encoding="utf-8"?>
<!-- Generator: Adobe Adobe Illustrator 24.2.0, SVG Export Plug-In . SVG Version: 6.00 Build 0)  -->
<svg version="1.1" xmlns="http://www.w3.org/2000/svg" xmlns:xlink="http://www.w3.org/1999/xlink" x="0px" y="0px"
	 width="595.28px" height="841.89px" viewBox="0 0 595.28 841.89" style="enable-background:new 0 0 595.28 841.89;"
	 xml:space="preserve">
<style type="text/css">
	.st0{fill:#FFFFFF;stroke:#F3E93F;stroke-miterlimit:10;}
	.st1{fill:#FFFFFF;stroke:#FFFFFF;stroke-miterlimit:10;}
	.st2{fill:#FFFFFF;stroke:#000000;stroke-miterlimit:10;}
	.st3{fill:#FA362A;stroke:#FFFFFF;stroke-miterlimit:10;}
	.st4{opacity:0.4314;}
	.st5{fill:#819487;}
	.st6{fill:#4CBD69;}
	.st7{fill:none;}
	.st8{font-family:'SourceSansPro-Regular';}
	.st9{font-size:20.25px;}
	.st10{font-size:19.25px;}
	.st11{fill:none;stroke:#000000;stroke-miterlimit:10;}
	.st12{font-size:21.5px;}
	.st13{font-size:18.875px;}
	.st14{font-size:15.625px;}
	.st15{font-size:25.75px;}
</style>
<g id="Layer_2">
	<polygon class="st0" points="107.88,519.19 -5.24,514.01 102.51,632.29 	"/>
	<circle class="st1" cx="560.16" cy="307.75" r="8.25"/>
	<circle class="st1" cx="570.6" cy="397.91" r="10.75"/>
	<ellipse class="st1" cx="359.16" cy="674.61" rx="2" ry="8.5"/>
	<ellipse class="st1" cx="539.98" cy="471.97" rx="19.87" ry="15.05"/>
</g>
<g id="Layer_1">
	<path class="st2" d="M476.81,363.87c15.89,59.97-97.08,118.79-199.46,147.62c-102.38,28.83-196.42,12.99-210.04-35.39
		s58.33-110.97,160.71-139.8C330.39,307.48,460.78,303.38,476.81,363.87z"/>
	<path class="st2" d="M474.27,361.68c-3.63-24.59-30.27-24.15-20.91-28.01c51.3-21.12,55.13,9.21,59.7,25.42
		s-31.17,37.17-37.28,31.46C469.13,384.36,476.73,378.35,474.27,361.68z"/>
	<path class="st2" d="M456.67,335.94c-12.5-6.78-1.82-29.8-5.29-53.23c-1.23-8.32,23.76-9.7,26.94-2.12
		c5.36,12.77,15.9,38.93,12.44,47.23C487.55,335.49,463.98,339.91,456.67,335.94z"/>
	<path class="st2" d="M499.74,373.8c13.56,4.3,7.42,28.92,15.25,51.27c2.78,7.94-21.5,14.01-26.06,7.16
		c-7.67-11.53-22.97-35.22-21.13-44.03C469.5,380.07,491.82,371.29,499.74,373.8z"/>
	<path class="st2" d="M483.81,365.65c-12.83,0.43-17-10.06-4.46-16.25c7.34-3.62,33-11.02,39.83-10.92
		c11.69,0.17,15.6,10.08,4.46,16.25C517.12,358.33,491.31,365.4,483.81,365.65z"/>
	
		<ellipse transform="matrix(0.9646 -0.2639 0.2639 0.9646 -111.4046 84.4122)" class="st2" cx="258.52" cy="456.91" rx="73.59" ry="19.26"/>
	<path class="st2" d="M250.64,523.68L216,488.33c-4.95-15.05-8.12-21.64,11.93-28.23l51.42-16.91c20.05-6.59,22.06,7.48,27.01,22.53
		l13.79,42.42c4.95,15.05,11.12,25.35-8.93,31.94l-26.4,5.84C273.4,550.01,266.52,534.62,250.64,523.68z"/>
	<path class="st2" d="M154,373.57c0,0-53.1-23.35-15.39-45.92c20.91-12.51,116.71-44.11,143.61-48.12
		c48.51-7.23,15.39,45.92,15.39,45.92L154,373.57z"/>
	<ellipse class="st2" cx="92.63" cy="470.02" rx="30.5" ry="28.5"/>
	<ellipse class="st2" cx="75.06" cy="478.52" rx="9" ry="8.5"/>
	<path class="st2" d="M92.45,517.38c0.37-5.73,15.69-13.74,15.69-13.74l15.16,17.31c0,0-9.9,14.76-15.69,13.74
		C102.47,533.79,92.12,522.48,92.45,517.38z"/>
	<circle class="st3" cx="75.06" cy="478.52" r="6.23"/>
	<rect x="291.36" y="166.33" class="st1" width="65.8" height="54"/>
	<path class="st4" d="M332.55,420.99c8.07-24.77-12-67.2-29.27-94.78c-1.88-3,5.99-6.82,9.53-6.89c18.36-0.38,27.75-2.63,73.4-2.63
		c8,0,20.11,18.12,22.41,25.78c6.39,21.22,17.78,46.5,21.67,59.43c0.94,3.13,1.63-2.53-1.52-1.66
		c-22.4,6.13-67.21,18.39-89.62,24.52C336.29,425.54,331.63,423.81,332.55,420.99z"/>
	<polygon class="st5" points="312.39,341.79 325.09,365.66 408.63,342.47 399.15,326.21 	"/>
	
		<rect x="319.14" y="339.79" transform="matrix(0.9646 -0.2639 0.2639 0.9646 -79.5873 99.0408)" class="st6" width="19.5" height="12"/>
	
		<rect x="319.14" y="339.79" transform="matrix(0.9646 -0.2639 0.2639 0.9646 -79.5873 99.0408)" class="st6" width="19.5" height="12"/>
	
		<rect x="347.41" y="339.79" transform="matrix(0.9646 -0.2639 0.2639 0.9646 -78.5853 106.5005)" class="st6" width="19.5" height="12"/>
	
		<rect x="377.05" y="328.82" transform="matrix(0.9646 -0.2639 0.2639 0.9646 -74.6398 113.9343)" class="st6" width="19.5" height="12"/>
	
		<rect x="348.97" y="327.45" transform="matrix(0.9646 -0.2639 0.2639 0.9646 -74.8358 106.416)" class="st6" width="19.5" height="8.67"/>
	<rect x="39.95" y="161.63" class="st2" width="178.63" height="69"/>
	<rect x="231.23" y="177.43" class="st2" width="178.63" height="69"/>
	<rect x="3.32" y="358.99" class="st2" width="75" height="32.53"/>
	<rect x="148.05" y="609.38" class="st2" width="135" height="39.73"/>
	<rect x="358.72" y="605.34" class="st2" width="119.01" height="42.23"/>
	<rect x="456.83" y="479.21" class="st2" width="107" height="39.98"/>
	<rect x="213.7" y="187.3" class="st7" width="213.68" height="80"/>
	<text transform="matrix(1 0 0 1 285.2538 201.7165)"><tspan x="0" y="0" class="st8 st9">network </tspan><tspan x="-10.14" y="24.3" class="st8 st9">subsystem</tspan></text>
	<rect x="34.63" y="175.7" class="st7" width="177" height="62"/>
	<text transform="matrix(1 0 0 1 80.4451 189.4069)"><tspan x="0" y="0" class="st8 st10">pressure &amp;</tspan><tspan x="-11.79" y="23.1" class="st8 st10"> depth sensor</tspan></text>
	<rect x="463.14" y="151.08" class="st7" width="0" height="0"/>
	<rect x="494.06" y="731.35" class="st7" width="0" height="0"/>
	<line class="st11" x1="318.96" y1="250.4" x2="348.17" y2="330.18"/>
	<rect x="470.92" y="488.6" class="st7" width="111.85" height="30.08"/>
	<text transform="matrix(1 0 0 1 470.9175 503.9052)" class="st8 st12">propeller</text>
	<rect x="557.2" y="486.26" class="st7" width="6.62" height="3.09"/>
	<rect x="339.49" y="509.67" class="st7" width="0" height="0"/>
	<line class="st11" x1="520.11" y1="471.97" x2="501.02" y2="441.52"/>
	<rect x="11.63" y="365.66" class="st7" width="62.23" height="32.08"/>
	<text transform="matrix(1 0 0 1 11.6309 379.0989)" class="st8 st13">camera</text>
	
		<rect x="82.53" y="377.79" transform="matrix(0.9621 -0.2727 0.2727 0.9621 -108.5557 74.0875)" class="st7" width="259.51" height="99.67"/>
	<text transform="matrix(1 0 0 1 214.2696 392.921)"><tspan x="0" y="0" class="st8 st14">UNDERWATER </tspan><tspan x="-55.71" y="18.75" class="st8 st14">EXPLORATION DRONE</tspan></text>
	<rect x="311.67" y="123.38" class="st7" width="4.86" height="6.18"/>
	<line class="st11" x1="39.21" y1="392.08" x2="62.13" y2="457.81"/>
	<line class="st11" x1="125.08" y1="546.6" x2="190.89" y2="612.4"/>
	<rect x="166.26" y="615.11" class="st7" width="158" height="68"/>
	<text transform="matrix(1 0 0 1 166.2596 633.4446)" class="st8 st15">spotlight</text>
	<rect x="484.34" y="697.46" class="st7" width="1.32" height="3.09"/>
	<line class="st11" x1="324.26" y1="539.6" x2="390.07" y2="605.4"/>
	<line class="st11" x1="129.26" y1="234.4" x2="195.07" y2="300.2"/>
	<rect x="384.45" y="615.11" class="st7" width="93.28" height="32.46"/>
	<text transform="matrix(1 0 0 1 384.4517 633.4437)" class="st8 st15">rudder</text>
</g>
</svg>
